<svg xmlns="http://www.w3.org/2000/svg" viewBox="0 0 100 100" width="100" height="100">
  <defs>
    <linearGradient id="towerGradient" x1="0%" y1="0%" x2="100%" y2="100%">
      <stop offset="0%" style="stop-color:#FAFAFA;stop-opacity:1" />
      <stop offset="100%" style="stop-color:#E8E8E8;stop-opacity:1" />
    </linearGradient>
    <linearGradient id="lanternGradient" x1="0%" y1="0%" x2="100%" y2="100%">
      <stop offset="0%" style="stop-color:#424242;stop-opacity:1" />
      <stop offset="100%" style="stop-color:#212121;stop-opacity:1" />
    </linearGradient>
    <linearGradient id="lightGradient" x1="0%" y1="0%" x2="100%" y2="100%">
      <stop offset="0%" style="stop-color:#FFE082;stop-opacity:1" />
      <stop offset="100%" style="stop-color:#FFB74D;stop-opacity:1" />
    </linearGradient>
    <radialGradient id="beamGradient" cx="50%" cy="50%" r="50%">
      <stop offset="0%" style="stop-color:#FFF9C4;stop-opacity:0.8" />
      <stop offset="100%" style="stop-color:#FFF9C4;stop-opacity:0.1" />
    </radialGradient>
  </defs>
  
  <!-- Light beam background -->
  <ellipse cx="50" cy="25" rx="45" ry="15" fill="url(#beamGradient)" transform="rotate(-10 50 25)"/>
  
  <!-- Base/foundation -->
  <ellipse cx="50" cy="85" rx="18" ry="6" fill="#BDBDBD"/>
  <rect x="32" y="80" width="36" height="8" fill="#9E9E9E" rx="2"/>
  
  <!-- Main lighthouse tower (conical shape like Concord) -->
  <path d="M 35 80 L 38 25 L 62 25 L 65 80 Z" fill="url(#towerGradient)" stroke="#DDDDDD" stroke-width="1"/>
  
  <!-- Door -->
  <rect x="46" y="70" width="8" height="12" fill="#8D6E63" rx="4"/>
  <circle cx="52" cy="76" r="1" fill="#5D4037"/>
  
  <!-- Window -->
  <rect x="46" y="50" width="8" height="8" fill="#1976D2" rx="1"/>
  <line x1="50" y1="50" x2="50" y2="58" stroke="#E3F2FD" stroke-width="0.5"/>
  <line x1="46" y1="54" x2="54" y2="54" stroke="#E3F2FD" stroke-width="0.5"/>
  
  <!-- Lantern room (black top section) -->
  <rect x="36" y="20" width="28" height="12" fill="url(#lanternGradient)" rx="2"/>
  
  <!-- Lantern room windows/panels -->
  <rect x="40" y="22" width="4" height="8" fill="url(#lightGradient)" rx="0.5"/>
  <rect x="48" y="22" width="4" height="8" fill="url(#lightGradient)" rx="0.5"/>
  <rect x="56" y="22" width="4" height="8" fill="url(#lightGradient)" rx="0.5"/>
  
  <!-- Dome/roof -->
  <ellipse cx="50" cy="20" rx="16" ry="8" fill="#616161"/>
  <ellipse cx="50" cy="18" rx="14" ry="6" fill="#757575"/>
  
  <!-- Weather vane/finial -->
  <rect x="49" y="12" width="2" height="8" fill="#424242"/>
  <polygon points="46,12 50,8 54,12" fill="#424242"/>
  
  <!-- Subtle light rays -->
  <path d="M 64 22 L 85 15 L 83 17 L 64 25 Z" fill="#FFECB3" opacity="0.4"/>
  <path d="M 64 26 L 90 25 L 88 27 L 64 28 Z" fill="#FFECB3" opacity="0.3"/>
  <path d="M 64 30 L 85 35 L 83 33 L 64 28 Z" fill="#FFECB3" opacity="0.4"/>
</svg>