<svg xmlns="http://www.w3.org/2000/svg" viewBox="0 0 64 64" width="64" height="64">
  <defs>
    <linearGradient id="lightGradient" x1="0%" y1="0%" x2="100%" y2="100%">
      <stop offset="0%" style="stop-color:#FFE135;stop-opacity:1" />
      <stop offset="100%" style="stop-color:#FFA726;stop-opacity:1" />
    </linearGradient>
    <linearGradient id="towerGradient" x1="0%" y1="0%" x2="100%" y2="100%">
      <stop offset="0%" style="stop-color:#E53935;stop-opacity:1" />
      <stop offset="100%" style="stop-color:#C62828;stop-opacity:1" />
    </linearGradient>
    <linearGradient id="baseGradient" x1="0%" y1="0%" x2="100%" y2="100%">
      <stop offset="0%" style="stop-color:#546E7A;stop-opacity:1" />
      <stop offset="100%" style="stop-color:#37474F;stop-opacity:1" />
    </linearGradient>
  </defs>
  
  <!-- Background circle -->
  <circle cx="32" cy="32" r="30" fill="#1565C0" stroke="#0D47A1" stroke-width="2"/>
  
  <!-- Lighthouse base -->
  <rect x="26" y="48" width="12" height="8" fill="url(#baseGradient)" rx="1"/>
  
  <!-- Lighthouse tower -->
  <polygon points="28,48 28,20 36,20 36,48" fill="url(#towerGradient)"/>
  
  <!-- White stripes -->
  <rect x="28" y="24" width="8" height="3" fill="white" opacity="0.9"/>
  <rect x="28" y="32" width="8" height="3" fill="white" opacity="0.9"/>
  <rect x="28" y="40" width="8" height="3" fill="white" opacity="0.9"/>
  
  <!-- Lighthouse lantern room -->
  <rect x="26" y="16" width="12" height="8" fill="url(#lightGradient)" rx="2"/>
  
  <!-- Light beam -->
  <path d="M 38 20 L 55 10 L 55 30 Z" fill="yellow" opacity="0.6"/>
  
  <!-- Roof -->
  <polygon points="25,16 32,10 39,16" fill="#424242"/>
  
  <!-- Door -->
  <rect x="30" y="44" width="4" height="4" fill="#5D4037" rx="0.5"/>
</svg>